<?xml version="1.0" encoding="UTF-8" standalone="no"?>
<!-- Created with Inkscape (http://www.inkscape.org/) -->

<svg
   xmlns:dc="http://purl.org/dc/elements/1.1/"
   xmlns:cc="http://creativecommons.org/ns#"
   xmlns:rdf="http://www.w3.org/1999/02/22-rdf-syntax-ns#"
   xmlns:svg="http://www.w3.org/2000/svg"
   xmlns="http://www.w3.org/2000/svg"
   xmlns:sodipodi="http://sodipodi.sourceforge.net/DTD/sodipodi-0.dtd"
   xmlns:inkscape="http://www.inkscape.org/namespaces/inkscape"
   width="210mm"
   height="297mm"
   viewBox="0 0 210 297"
   version="1.1"
   id="svg8"
   inkscape:version="0.92.3 (2405546, 2018-03-11)"
   sodipodi:docname="logoBitGym.svg"
   inkscape:export-filename="C:\Users\josed\Desktop\DM\BitGym\BitGym\BitGym-Logo.png"
   inkscape:export-xdpi="10.598135"
   inkscape:export-ydpi="10.598135">
  <defs
     id="defs2" />
  <sodipodi:namedview
     id="base"
     pagecolor="#ffffff"
     bordercolor="#666666"
     borderopacity="1.0"
     inkscape:pageopacity="0.0"
     inkscape:pageshadow="2"
     inkscape:zoom="2.145131"
     inkscape:cx="218.43025"
     inkscape:cy="599.94448"
     inkscape:document-units="mm"
     inkscape:current-layer="layer1"
     showgrid="false"
     showborder="false"
     inkscape:showpageshadow="false"
     inkscape:object-paths="false"
     inkscape:object-nodes="false"
     inkscape:window-width="1920"
     inkscape:window-height="1057"
     inkscape:window-x="-8"
     inkscape:window-y="-8"
     inkscape:window-maximized="1"
     showguides="true"
     inkscape:guide-bbox="true" />
  <metadata
     id="metadata5">
    <rdf:RDF>
      <cc:Work
         rdf:about="">
        <dc:format>image/svg+xml</dc:format>
        <dc:type
           rdf:resource="http://purl.org/dc/dcmitype/StillImage" />
        <dc:title />
      </cc:Work>
    </rdf:RDF>
  </metadata>
  <g
     inkscape:label="Capa 1"
     inkscape:groupmode="layer"
     id="layer1">
    <path
       style="color:#000000;font-style:normal;font-variant:normal;font-weight:normal;font-stretch:normal;font-size:medium;line-height:normal;font-family:sans-serif;font-variant-ligatures:normal;font-variant-position:normal;font-variant-caps:normal;font-variant-numeric:normal;font-variant-alternates:normal;font-feature-settings:normal;text-indent:0;text-align:start;text-decoration:none;text-decoration-line:none;text-decoration-style:solid;text-decoration-color:#000000;letter-spacing:normal;word-spacing:normal;text-transform:none;writing-mode:lr-tb;direction:ltr;text-orientation:mixed;dominant-baseline:auto;baseline-shift:baseline;text-anchor:start;white-space:normal;shape-padding:0;clip-rule:nonzero;display:inline;overflow:visible;visibility:visible;opacity:1;isolation:auto;mix-blend-mode:normal;color-interpolation:sRGB;color-interpolation-filters:linearRGB;solid-color:#000000;solid-opacity:1;vector-effect:none;fill:#000000;fill-opacity:1;fill-rule:nonzero;stroke:none;stroke-width:1.02108717;stroke-linecap:butt;stroke-linejoin:round;stroke-miterlimit:4;stroke-dasharray:none;stroke-dashoffset:0;stroke-opacity:1;color-rendering:auto;image-rendering:auto;shape-rendering:auto;text-rendering:auto;enable-background:accumulate"
       d="m 46.198201,106.49715 c -0.138444,0.007 -0.275965,0.0286 -0.411392,0.0691 a 0.47510079,0.54874025 0 0 0 -0.108923,0.0278 l -0.0263,0.0104 a 0.47510079,0.54874025 0 0 0 -0.02915,0.0118 l -2.012648,0.81538 a 0.47510079,0.54874025 0 0 0 -0.0143,0.007 0.47510079,0.54874025 0 0 0 -0.02859,0.0102 c -0.325,0.13168 -0.602346,0.36253 -0.832219,0.65988 -0.284075,-0.053 -0.568644,-0.0455 -0.844796,0.037 a 0.47510077,0.54874023 0 0 0 -0.108924,0.0274 l -0.0263,0.0108 a 0.47510077,0.54874023 0 0 0 -0.02887,0.0118 l -2.012934,0.81569 a 0.47510077,0.54874023 0 0 0 -0.01401,0.007 0.47510077,0.54874023 0 0 0 -0.02887,0.0102 c -0.325002,0.1317 -0.602356,0.36225 -0.832219,0.65957 -0.284117,-0.053 -0.568889,-0.0453 -0.845084,0.0373 a 0.47510077,0.54874023 0 0 0 -0.108637,0.0278 l -0.0263,0.0105 a 0.47510077,0.54874023 0 0 0 -0.02887,0.0118 l -2.012934,0.8157 a 0.47510077,0.54874023 0 0 0 -0.0143,0.007 0.47510077,0.54874023 0 0 0 -0.02859,0.0102 l -5.72e-4,-0.003 c -0.567761,0.23004 -0.991002,0.76081 -1.267339,1.42485 -0.276335,0.66406 -0.426644,1.47652 -0.47686,2.39898 -0.100433,1.84492 0.206101,4.1405 0.928277,6.51838 0.72218,2.37792 1.724278,4.39178 2.800553,5.75998 0.538136,0.68409 1.09493,1.20978 1.669869,1.52895 0.57494,0.31914 1.192718,0.42838 1.760495,0.19835 a 0.47510077,0.54874023 0 0 0 0.02973,-0.0134 c 4.5e-4,-2.3e-4 7e-4,-4.9e-4 0.0011,-6.6e-4 a 0.47510077,0.54874023 0 0 0 0.01143,-0.004 l 1.982916,-0.80327 a 0.47510077,0.54874023 0 0 0 0.0143,-0.007 0.47510077,0.54874023 0 0 0 0.02859,-0.0102 c 0.322982,-0.13087 0.599164,-0.359 0.828216,-0.65367 0.338365,0.065 0.67751,0.0438 1.000606,-0.0871 a 0.47510077,0.54874023 0 0 0 0.02973,-0.0134 c 4.49e-4,-2.2e-4 8.73e-4,-5.2e-4 0.0015,-6.5e-4 a 0.47510077,0.54874023 0 0 0 0.01143,-0.003 l 1.982915,-0.80358 a 0.47510077,0.54874023 0 0 0 0.0143,-0.007 0.47510077,0.54874023 0 0 0 0.02859,-0.0102 c 0.323014,-0.13086 0.599151,-0.35927 0.828217,-0.65399 0.338375,0.0649 0.677489,0.0442 1.000606,-0.0867 a 0.47510079,0.54874025 0 0 0 0.02973,-0.0134 c 4.51e-4,-2.2e-4 9.6e-4,-5.6e-4 0.0015,-6.5e-4 a 0.47510079,0.54874025 0 0 0 0.01143,-0.004 l 1.98263,-0.80326 a 0.47510079,0.54874025 0 0 0 0.0143,-0.007 0.47510079,0.54874025 0 0 0 0.02887,-0.0101 c 0.567766,-0.23004 0.991001,-0.76047 1.267338,-1.42452 0.276337,-0.66405 0.426648,-1.47652 0.47686,-2.39898 0.100427,-1.84494 -0.206374,-4.14048 -0.928563,-6.51839 a 0.47510079,0.54874025 0 0 0 0,-3.3e-4 c -0.715386,-2.35348 -1.70583,-4.3522 -2.771107,-5.71938 -0.532637,-0.68359 -1.084113,-1.21185 -1.653287,-1.53909 -0.403899,-0.23223 -0.827708,-0.36044 -1.243039,-0.34174 z m 47.100534,0 c -0.415331,-0.0187 -0.839425,0.1095 -1.243326,0.34173 -0.569169,0.32724 -1.120646,0.85551 -1.653286,1.53909 -1.065275,1.36718 -2.05572,3.3659 -2.771108,5.71938 a 0.47510079,0.54874025 0 0 1 0,3.3e-4 c -0.722187,2.37791 -1.028989,4.67344 -0.928561,6.5184 0.05021,0.92245 0.200808,1.73492 0.477146,2.39898 0.276336,0.66404 0.699572,1.19447 1.267339,1.42451 a 0.47510079,0.54874025 0 0 0 0.02859,0.0102 0.47510079,0.54874025 0 0 0 0.0143,0.007 l 1.982914,0.80326 a 0.47510079,0.54874025 0 0 0 0.01143,0.004 c 5.53e-4,10e-5 0.001,4.3e-4 0.0015,6.6e-4 a 0.47510079,0.54874025 0 0 0 0.02974,0.0134 c 0.323117,0.13095 0.662516,0.15166 1.000891,0.0868 0.22907,0.29472 0.504919,0.52313 0.827931,0.654 a 0.47510077,0.54874023 0 0 0 0.02887,0.0102 0.47510077,0.54874023 0 0 0 0.0143,0.007 l 1.982629,0.80358 a 0.47510077,0.54874023 0 0 0 0.01144,0.003 c 5.52e-4,1.3e-4 0.0013,4.3e-4 0.0017,6.6e-4 a 0.47510077,0.54874023 0 0 0 0.02944,0.0134 c 0.323095,0.13092 0.662528,0.15205 1.000897,0.0871 0.22905,0.29469 0.505229,0.52281 0.828214,0.65368 a 0.47510077,0.54874023 0 0 0 0.02856,0.0102 0.47510077,0.54874023 0 0 0 0.01428,0.007 l 1.982918,0.80326 a 0.47510077,0.54874023 0 0 0 0.01143,0.004 c 5.54e-4,1.7e-4 4.08e-4,4.3e-4 7.15e-4,6.5e-4 a 0.47510077,0.54874023 0 0 0 0.03001,0.0134 c 0.567767,0.23002 1.185259,0.12079 1.760202,-0.19836 0.57494,-0.31915 1.13173,-0.84484 1.66987,-1.52894 1.07628,-1.36819 2.07837,-3.38206 2.80055,-5.75997 0.72218,-2.3779 1.02871,-4.67346 0.92827,-6.51839 -0.0502,-0.92245 -0.20051,-1.73493 -0.47685,-2.39897 -0.27634,-0.66405 -0.69958,-1.19481 -1.26735,-1.42486 l -7e-4,0.003 a 0.47510077,0.54874023 0 0 0 -0.0286,-0.0102 0.47510077,0.54874023 0 0 0 -0.014,-0.007 l -2.01293,-0.81569 a 0.47510077,0.54874023 0 0 0 -0.0292,-0.0118 l -0.026,-0.0104 a 0.47510077,0.54874023 0 0 0 -0.10892,-0.0278 c -0.27621,-0.0826 -0.56097,-0.0903 -0.84509,-0.0373 -0.22987,-0.29733 -0.50721,-0.52788 -0.83221,-0.65957 a 0.47510077,0.54874023 0 0 0 -0.02856,-0.0102 0.47510077,0.54874023 0 0 0 -0.01398,-0.007 l -2.012932,-0.8157 a 0.47510077,0.54874023 0 0 0 -0.02914,-0.0118 l -0.02601,-0.0108 a 0.47510077,0.54874023 0 0 0 -0.108922,-0.0274 c -0.27615,-0.0826 -0.560722,-0.0899 -0.844798,-0.037 -0.229871,-0.29735 -0.507493,-0.5282 -0.832503,-0.65989 a 0.47510079,0.54874025 0 0 0 -0.02856,-0.0102 0.47510079,0.54874025 0 0 0 -0.01398,-0.008 l -2.012934,-0.81537 a 0.47510079,0.54874025 0 0 0 -0.02917,-0.0118 l -0.02602,-0.0105 a 0.47510079,0.54874025 0 0 0 -0.108922,-0.0278 c -0.135426,-0.0404 -0.272949,-0.0628 -0.411393,-0.0691 z m -47.463326,0.61406 0.0015,0.006 a 8.7815294,3.302235 73.959839 0 0 -0.03803,0.01 v -6.5e-4 z m 47.826403,0 0.03659,0.015 -2.85e-4,6.6e-4 a 3.302235,8.7815294 16.040161 0 0 -0.03803,-0.01 z m -47.877576,0.0196 a 8.7815294,3.302235 73.959839 0 0 -1.420003,3.43988 l -2.072684,0.8396 a 8.7815294,3.302235 73.959839 0 1 1.430581,-3.4448 v 6.6e-4 a 8.7815294,3.302235 73.959839 0 1 0.002,-6.6e-4 8.7815294,3.302235 73.959839 0 1 0.0446,-0.0118 l -0.0017,-0.006 z m 47.928464,0 2.017221,0.81734 -0.0015,0.006 a 3.302235,8.7815294 16.040161 0 1 0.04459,0.0118 3.302235,8.7815294 16.040161 0 1 0.0022,6.5e-4 v -3.2e-4 a 3.302235,8.7815294 16.040161 0 1 1.430573,3.44446 l -2.072968,-0.83959 a 3.302235,8.7815294 16.040161 0 0 -1.420001,-3.43988 z m -46.900413,1.31521 a 7.3430792,2.9265153 74.085141 0 1 4.274018,5.99597 7.3430792,2.9265153 74.085141 0 1 -0.593501,8.12523 7.3430792,2.9265153 74.085141 0 1 -4.857801,-5.91676 7.3430792,2.9265153 74.085141 0 1 0.593502,-8.12491 7.3430792,2.9265153 74.085141 0 1 0.583782,-0.0796 z m 45.872362,0 a 2.9265153,7.3430792 15.914859 0 1 0.584068,0.0796 2.9265153,7.3430792 15.914859 0 1 0.593217,8.12491 2.9265153,7.3430792 15.914859 0 1 -4.8578,5.91675 2.9265153,7.3430792 15.914859 0 1 -0.593217,-8.12522 2.9265153,7.3430792 15.914859 0 1 4.273732,-5.99598 z m -50.746457,0.24418 0.0017,0.006 a 8.7815294,3.3022348 73.959838 0 0 -0.03831,0.01 v -6.5e-4 z m 55.620552,0 0.03657,0.0147 v 6.6e-4 a 3.3022348,8.7815294 16.040162 0 0 -0.03796,-0.01 z m -55.671726,0.0196 a 8.7815294,3.3022348 73.959838 0 0 -1.420003,3.43955 l -2.072399,0.83993 a 8.7815294,3.3022348 73.959838 0 1 1.430296,-3.44479 v 3.3e-4 a 8.7815294,3.3022348 73.959838 0 1 0.002,-6.6e-4 8.7815294,3.3022348 73.959838 0 1 0.0446,-0.0114 l -0.0017,-0.006 z m 55.722894,0 2.01723,0.81734 -0.0015,0.006 a 3.3022348,8.7815294 16.040162 0 1 0.04458,0.0114 3.3022348,8.7815294 16.040162 0 1 0.0022,6.6e-4 v -3.4e-4 a 3.3022348,8.7815294 16.040162 0 1 1.430288,3.4448 l -2.07268,-0.83993 a 3.3022348,8.7815294 16.040162 0 0 -1.420003,-3.43955 z m -59.568938,1.55939 0.0017,0.006 a 8.7815294,3.3022348 73.959838 0 0 -0.03831,0.01 v -6.6e-4 z m 63.414986,0 0.0366,0.0148 v 6.5e-4 a 3.3022348,8.7815294 16.040162 0 0 -0.0383,-0.01 z m -63.46616,0.0196 a 8.7815294,3.3022348 73.959838 0 0 -1.419717,3.43956 l -2.072685,0.83991 a 8.7815294,3.3022348 73.959838 0 1 1.430295,-3.44478 v 3.2e-4 a 8.7815294,3.3022348 73.959838 0 1 0.002,-6.5e-4 8.7815294,3.3022348 73.959838 0 1 0.0446,-0.0114 l -0.0015,-0.006 z m 63.51733,0 2.01724,0.81701 -0.002,0.006 a 3.3022348,8.7815294 16.040162 0 1 0.0446,0.0114 3.3022348,8.7815294 16.040162 0 1 0.002,6.6e-4 v -3.4e-4 a 3.3022348,8.7815294 16.040162 0 1 1.43057,3.4448 l -2.07268,-0.83993 a 3.3022348,8.7815294 16.040162 0 0 -1.42001,-3.43955 z m -59.59867,0.0982 c -0.04004,0.28199 -0.069,0.57649 -0.08577,0.88444 -0.100433,1.84493 0.206102,4.1405 0.928277,6.5184 0.72218,2.37791 1.724278,4.39176 2.800553,5.75997 0.193645,0.24615 0.389914,0.47104 0.588356,0.67397 a 7.3430792,2.9265153 74.085141 0 1 -4.40181,-5.99435 7.3430792,2.9265153 74.085141 0 1 0.17039,-7.84243 z m 55.68002,0 a 2.9265153,7.3430792 15.914859 0 1 0.170668,7.84243 2.9265153,7.3430792 15.914859 0 1 -4.401806,5.99435 c 0.198442,-0.20293 0.394426,-0.42782 0.58807,-0.67397 1.076275,-1.36821 2.078376,-3.38206 2.800557,-5.75997 0.722175,-2.3779 1.028994,-4.67347 0.928559,-6.5184 -0.01675,-0.30795 -0.04597,-0.60245 -0.08605,-0.88444 z m -53.229393,1.16823 a 8.7815294,3.302235 73.959839 0 0 0.02915,0.57708 l -2.070683,0.83894 a 8.7815294,3.302235 73.959839 0 1 -0.02688,-0.57806 h 2.87e-4 z m 50.778762,0 2.068401,0.83796 a 3.302235,8.7815294 16.040161 0 1 -0.02659,0.57806 l -2.070675,-0.83894 a 3.302235,8.7815294 16.040161 0 0 0.02885,-0.57708 z m -46.423552,0.23044 a 3.4186772,1.3624819 74.085141 0 0 -0.230139,0.0399 3.4186772,1.3624819 74.085141 0 0 -0.276168,3.78259 3.4186772,1.3624819 74.085141 0 0 2.261655,2.75445 3.4186772,1.3624819 74.085141 0 0 0.275882,-3.78258 3.4186772,1.3624819 74.085141 0 0 -2.03123,-2.7944 z m 42.068628,0 a 1.3624819,3.4186772 15.914859 0 0 -2.031516,2.7944 1.3624819,3.4186772 15.914859 0 0 0.276168,3.78258 1.3624819,3.4186772 15.914859 0 0 2.261655,-2.75444 1.3624819,3.4186772 15.914859 0 0 -0.276168,-3.7826 1.3624819,3.4186772 15.914859 0 0 -0.230139,-0.04 z m -52.771397,0.18036 c -0.04002,0.28191 -0.0693,0.57625 -0.08606,0.88411 -0.100432,1.84492 0.206102,4.14082 0.928276,6.51872 0.722183,2.37792 1.724564,4.39144 2.80084,5.75965 0.193688,0.24621 0.389867,0.47098 0.588357,0.67396 a 7.3430792,2.9265153 74.085141 0 1 -4.402096,-5.99369 7.3430792,2.9265153 74.085141 0 1 0.170676,-7.84275 z m 63.474162,3.3e-4 a 2.9265153,7.3430792 15.914859 0 1 0.17039,7.84242 2.9265153,7.3430792 15.914859 0 1 -4.401809,5.99369 c 0.198487,-0.20298 0.394681,-0.42775 0.58836,-0.67396 1.076279,-1.36821 2.07837,-3.38173 2.800559,-5.75965 0.72216,-2.3779 1.0287,-4.6738 0.92828,-6.51872 -0.0168,-0.30775 -0.0458,-0.60197 -0.0858,-0.88378 z m -61.023822,1.16757 a 8.7815294,3.3022348 73.959838 0 0 0.02915,0.57708 l -2.070683,0.83927 a 8.7815294,3.3022348 73.959838 0 1 -0.02659,-0.57839 z m 58.573205,0 2.068397,0.83796 a 3.3022348,8.7815294 16.040162 0 1 -0.0266,0.57839 L 99.005861,113.711 a 3.3022348,8.7815294 16.040162 0 0 0.02914,-0.57708 z m -54.398389,1.00785 a 8.7815294,3.302235 73.959839 0 0 0.630953,2.62843 8.7815294,3.302235 73.959839 0 0 5.58081,7.16257 l 0.0015,0.006 -1.98263,0.80326 -0.0011,-0.003 a 8.7815294,3.302235 73.959839 0 1 -0.04116,0.0219 8.7815294,3.302235 73.959839 0 1 -5.625409,-7.15112 8.7815294,3.302235 73.959839 0 1 -0.628666,-2.62941 l -2.86e-4,-0.002 z m 50.223855,0 2.065822,0.83696 v 0.002 a 3.302235,8.7815294 16.040161 0 1 -0.628666,2.62942 3.302235,8.7815294 16.040161 0 1 -5.625408,7.15111 3.302235,8.7815294 16.040161 0 1 -0.04116,-0.0219 l -0.0011,0.003 -1.982915,-0.80327 0.0017,-0.006 a 3.302235,8.7815294 16.040161 0 0 5.580809,-7.16258 3.302235,8.7815294 16.040161 0 0 0.630954,-2.62843 z m -58.295602,0.57118 a 8.7815294,3.3022348 73.959838 0 0 0.02887,0.57708 l -2.070683,0.83894 a 8.7815294,3.3022348 73.959838 0 1 -0.02659,-0.57806 z m 66.367353,0 2.06811,0.83796 a 3.3022348,8.7815294 16.040162 0 1 -0.0263,0.57806 l -2.07097,-0.83894 a 3.3022348,8.7815294 16.040162 0 0 0.0292,-0.57708 z m -62.192824,1.00784 a 8.7815294,3.3022348 73.959838 0 0 0.630954,2.62844 8.7815294,3.3022348 73.959838 0 0 5.580809,7.16257 l 0.0017,0.006 -1.982917,0.80358 -0.0011,-0.003 a 8.7815294,3.3022348 73.959838 0 1 -0.04116,0.0219 8.7815294,3.3022348 73.959838 0 1 -5.625408,-7.15143 8.7815294,3.3022348 73.959838 0 1 -0.628667,-2.62942 v -8.2e-4 z m 58.018007,0 2.066107,0.83698 -2.9e-4,8.1e-4 a 3.3022348,8.7815294 16.040162 0 1 -0.62838,2.62942 3.3022348,8.7815294 16.040162 0 1 -5.625404,7.15144 3.3022348,8.7815294 16.040162 0 1 -0.04146,-0.0219 l -0.0011,0.003 -1.982628,-0.80358 0.0015,-0.006 a 3.3022348,8.7815294 16.040162 0 0 5.580807,-7.16257 3.3022348,8.7815294 16.040162 0 0 0.630955,-2.62844 z m -61.915225,1.57901 a 8.7815294,3.3022348 73.959838 0 0 0.630954,2.62844 8.7815294,3.3022348 73.959838 0 0 5.58081,7.16257 l 0.0017,0.006 -1.982915,0.80325 -8.73e-4,-0.003 a 8.7815294,3.3022348 73.959838 0 1 -0.04146,0.0216 8.7815294,3.3022348 73.959838 0 1 -5.625409,-7.15111 8.7815294,3.3022348 73.959838 0 1 -0.62838,-2.62942 l -2.86e-4,-8.2e-4 z m 65.812442,0 2.06582,0.83698 v 8.2e-4 a 3.3022348,8.7815294 16.040162 0 1 -0.62866,2.62942 3.3022348,8.7815294 16.040162 0 1 -5.625127,7.15111 3.3022348,8.7815294 16.040162 0 1 -0.04145,-0.0216 l -0.0015,0.003 -1.98291,-0.80326 0.0015,-0.006 a 3.3022348,8.7815294 16.040162 0 0 5.580807,-7.16257 3.3022348,8.7815294 16.040162 0 0 0.63095,-2.62844 z"
       id="path4614"
       inkscape:connector-curvature="0" />
    <path
       style="color:#000000;font-style:normal;font-variant:normal;font-weight:normal;font-stretch:normal;font-size:medium;line-height:normal;font-family:sans-serif;font-variant-ligatures:normal;font-variant-position:normal;font-variant-caps:normal;font-variant-numeric:normal;font-variant-alternates:normal;font-feature-settings:normal;text-indent:0;text-align:start;text-decoration:none;text-decoration-line:none;text-decoration-style:solid;text-decoration-color:#000000;letter-spacing:normal;word-spacing:normal;text-transform:none;writing-mode:lr-tb;direction:ltr;text-orientation:mixed;dominant-baseline:auto;baseline-shift:baseline;text-anchor:start;white-space:normal;shape-padding:0;clip-rule:nonzero;display:inline;overflow:visible;visibility:visible;opacity:1;isolation:auto;mix-blend-mode:normal;color-interpolation:sRGB;color-interpolation-filters:linearRGB;solid-color:#000000;solid-opacity:1;vector-effect:none;fill:#000000;fill-opacity:1;fill-rule:evenodd;stroke:none;stroke-width:0.0156624;stroke-linecap:butt;stroke-linejoin:miter;stroke-miterlimit:4;stroke-dasharray:none;stroke-dashoffset:0;stroke-opacity:1;color-rendering:auto;image-rendering:auto;shape-rendering:auto;text-rendering:auto;enable-background:accumulate"
       d="m 69.776771,111.00149 c -7.457665,0 -14.457363,1.00855 -20.535013,2.79407 0.310125,1.10049 0.515751,1.89841 0.631241,2.416 5.856649,-1.7081 12.656277,-2.69619 19.903772,-2.69619 7.266344,0 14.08256,0.99331 19.949514,2.70961 l 0.569774,-2.434 c -6.074013,-1.78266 -13.068028,-2.78949 -20.519288,-2.78949 z"
       id="path4702"
       inkscape:connector-curvature="0" />
    <path
       style="opacity:1;fill:#000000;fill-opacity:1;stroke:none;stroke-width:0.08297478px;stroke-linecap:butt;stroke-linejoin:miter;stroke-opacity:1"
       d="M 79.281386,100.93521 78.059788,101.31 v 2.9849 h -1.431439 v 5.61921 h -1.001176 v -3.03333 l -1.245613,-0.382 -1.474321,-0.97445 v 3.28963 L 72.487556,108.685 v 0.58527 h -0.920272 v -6.08731 h -1.431439 v -0.87789 h -1.789369 v 7.37501 h -2.914051 v -1.54074 h -0.87939 l 0.18211,-0.77706 -1.603257,-0.49165 v -3.51222 h -2.047239 v 6.0981 l -0.798198,-0.24485 v -4.77208 l -1.806525,-0.55418 -1.278201,-1.46347 v 2.04874 h -1.738197 v 2.98521 h -0.613513 v -1.2291 h -1.249902 v 1.00751 l -0.379944,0.25106 0.198406,0.84842 h -1.022334 c 0,0 0.09723,0.0726 0.05518,4.10698 5.334138,-1.28075 11.260827,-1.99178 17.511752,-1.99178 6.104476,0 11.901286,0.67662 17.137524,1.90111 v -9.02505 l -0.757316,0.23239 -2.404314,0.73748 v -1.81438 H 81.97073 v 3.13154 l -0.230139,0.2635 v 4.79959 H 80.86406 v -4.59763 l -1.058641,0.3247 v -4.86669 z"
       id="path855"
       inkscape:connector-curvature="0" />
    <g
       aria-label="                                                                             BitGym"
       transform="matrix(0.55322605,0,0,0.63145277,34.027685,42.442401)"
       style="font-style:normal;font-variant:normal;font-weight:normal;font-stretch:normal;font-size:14.11111069px;line-height:1.25;font-family:Lobster;-inkscape-font-specification:'Lobster, Normal';font-variant-ligatures:normal;font-variant-caps:normal;font-variant-numeric:normal;font-feature-settings:normal;text-align:start;letter-spacing:0px;word-spacing:0px;writing-mode:lr-tb;text-anchor:start;fill:#000000;fill-opacity:1;stroke:none;stroke-width:0.43982238"
       id="text830">
      <path
         d="m 44.389887,127.46459 q -0.671174,0.0911 -1.213286,-0.12577 -0.523054,-0.20241 -0.616462,-0.89036 -0.05923,-0.43626 0.08599,-1.00282 0.347593,0.29458 0.61751,0.39464 0.286696,0.0978 0.588725,0.0568 0.838968,-0.11391 1.114091,-1.10823 0.291903,-0.9966 0.136982,-2.1376 -0.289338,-2.13098 -1.883378,-1.91455 -0.453043,0.0615 -0.765016,0.15514 l -0.50334,6.61332 -2.41623,0.32807 0.833029,-10.98153 2.437782,-0.67277 -0.282859,3.8321 0.100676,-0.0137 q 0.637616,-0.0866 1.136658,-0.56446 0.496763,-0.49466 0.748055,-1.16107 0.249014,-0.68318 0.162441,-1.32079 -0.1048,-0.77185 -0.729145,-1.21683 -0.607565,-0.44726 -1.731783,-0.29462 -1.023542,0.13898 -1.932955,0.74094 -0.911691,0.58518 -1.407224,1.59234 -0.478753,1.00488 -0.30105,2.31367 0.08429,0.62084 0.235924,0.85658 0.149351,0.21897 0.153908,0.25253 -0.889307,0.12074 -1.390193,-0.17011 -0.503165,-0.30764 -0.614799,-1.12982 -0.154921,-1.141 0.561854,-2.28073 0.716775,-1.13974 2.041947,-1.95195 1.322894,-0.82899 2.883376,-1.04086 1.174556,-0.15948 2.030087,0.10031 0.855531,0.25979 1.323474,0.81145 0.484722,0.54938 0.582686,1.27089 0.1048,0.77185 -0.233499,1.5526 -0.338299,0.78075 -1.082196,1.34315 1.031823,0.0479 1.620946,0.73688 0.586844,0.67222 0.725818,1.69576 0.12986,0.95643 -0.08664,2.13077 -0.199724,1.17206 -0.927059,2.10816 -0.712833,0.91704 -2.004845,1.09247 z"
         style="font-style:normal;font-variant:normal;font-weight:normal;font-stretch:normal;font-size:16.93333244px;font-family:Lobster;-inkscape-font-specification:'Lobster, Normal';font-variant-ligatures:normal;font-variant-caps:normal;font-variant-numeric:normal;font-feature-settings:normal;text-align:start;writing-mode:lr-tb;text-anchor:start"
         id="path844"
         inkscape:connector-curvature="0" />
      <path
         d="m 50.646092,117.09869 q -0.556818,0.047 -0.977675,-0.30829 -0.420857,-0.35531 -0.467877,-0.91213 -0.04702,-0.55682 0.308294,-0.97768 0.353889,-0.43773 0.910707,-0.48475 0.556819,-0.047 0.9791,0.32517 0.43773,0.35389 0.48475,0.91071 0.04702,0.55682 -0.325167,0.9791 -0.355314,0.42085 -0.912132,0.46787 z m -0.34947,9.54593 q -0.809917,0.0684 -1.358861,-0.39506 -0.53207,-0.46488 -0.617561,-1.47727 -0.03562,-0.42184 0.04237,-1.10817 l 0.690008,-5.51321 2.429752,-0.20518 -0.730429,5.83951 q -0.04612,0.2588 -0.0219,0.54564 0.0285,0.33747 0.19318,0.4765 0.180132,0.12074 0.551344,0.0894 0.489325,-0.0413 0.876961,-0.4819 0.386211,-0.45745 0.516248,-1.13118 l 0.708678,-0.0598 q -0.470428,1.87503 -1.39351,2.61573 -0.924506,0.72382 -1.886283,0.80504 z"
         style="font-style:normal;font-variant:normal;font-weight:normal;font-stretch:normal;font-size:16.93333244px;font-family:Lobster;-inkscape-font-specification:'Lobster, Normal';font-variant-ligatures:normal;font-variant-caps:normal;font-variant-numeric:normal;font-feature-settings:normal;text-align:start;writing-mode:lr-tb;text-anchor:start"
         id="path846"
         inkscape:connector-curvature="0" />
      <path
         d="m 54.727764,126.31592 q -0.862272,0.0478 -1.314045,-0.45281 -0.434866,-0.50161 -0.482724,-1.36388 -0.0244,-0.43959 0.05171,-0.90172 l 0.800551,-5.13225 -0.557941,0.031 0.09772,-0.6838 0.557941,-0.031 0.377721,-2.36136 2.483515,-0.47703 q -0.116507,0.65093 -0.126846,0.77022 -0.09208,0.47997 -0.299737,1.93304 l 1.014438,-0.0563 -0.09772,0.6838 -1.014438,0.0563 -0.800552,5.13225 q -0.06389,0.37666 -0.05169,0.59645 0.03378,0.60866 0.625538,0.57582 0.304332,-0.0169 0.436775,-0.0751 -0.283719,0.99939 -0.721449,1.36288 -0.43773,0.36348 -0.978764,0.39351 z"
         style="font-style:normal;font-variant:normal;font-weight:normal;font-stretch:normal;font-size:16.93333244px;font-family:Lobster;-inkscape-font-specification:'Lobster, Normal';font-variant-ligatures:normal;font-variant-caps:normal;font-variant-numeric:normal;font-feature-settings:normal;text-align:start;writing-mode:lr-tb;text-anchor:start"
         id="path848"
         inkscape:connector-curvature="0" />
      <path
         d="m 61.740625,129.44882 q -1.23605,0.0143 -2.00547,-0.62022 -0.75229,-0.61784 -0.764282,-1.65071 -0.0075,-0.64342 0.291018,-1.18879 0.298488,-0.54537 0.819847,-0.85624 0.521163,-0.32781 1.147654,-0.33508 0.643423,-0.007 1.036599,0.30972 0.410108,0.31699 0.416202,0.84189 0.0047,0.40637 -0.178783,0.64559 -0.154749,-0.20142 -0.42704,-0.3168 -0.255359,-0.11558 -0.543207,-0.11224 -0.507965,0.006 -0.825745,0.34828 -0.31778,0.34238 -0.311489,0.88421 0.0063,0.54183 0.315002,0.87694 0.325644,0.3349 0.799745,0.3294 0.592627,-0.007 1.009837,-0.53669 0.417211,-0.52982 0.625337,-1.56524 l 0.803162,-3.75184 -0.06773,7.9e-4 q -0.449698,0.64873 -1.106122,0.99504 -0.639491,0.34611 -1.418372,0.35516 -0.982067,0.0114 -1.733178,-0.50485 -0.751111,-0.51625 -1.168689,-1.47666 -0.400843,-0.97755 -0.415784,-2.2644 -0.02163,-1.86254 0.773426,-3.39587 0.794855,-1.55027 2.206936,-2.44725 1.412081,-0.89699 3.122233,-0.91685 1.439236,-0.0167 2.276187,0.60015 0.853884,0.61666 0.866466,1.70032 0.0085,0.72809 -0.342011,1.17245 -0.350465,0.44437 -0.926159,0.45105 -0.321712,0.004 -0.611132,-0.12838 -0.272488,-0.13231 -0.461691,-0.38413 0.302421,-0.20673 0.500495,-0.64932 0.214811,-0.45973 0.209503,-0.9169 -0.0059,-0.50796 -0.313823,-0.77534 -0.291189,-0.2845 -0.833019,-0.27821 -0.982067,0.0114 -1.886183,0.90249 -0.904312,0.87416 -1.446757,2.28602 -0.542445,1.41186 -0.524555,2.95269 0.01474,1.26991 0.428981,1.94248 0.41404,0.65564 1.175989,0.64679 0.914338,-0.0106 1.597352,-0.98381 0.699946,-0.97339 1.101822,-2.82392 l 1.998195,-0.006 -1.169994,5.70356 q -0.512538,2.52919 -1.497775,3.72604 -0.968306,1.19666 -2.542999,1.21494 z"
         style="font-style:normal;font-variant:normal;font-weight:normal;font-stretch:normal;font-size:16.93333244px;font-family:Lobster;-inkscape-font-specification:'Lobster, Normal';font-variant-ligatures:normal;font-variant-caps:normal;font-variant-numeric:normal;font-feature-settings:normal;text-align:start;writing-mode:lr-tb;text-anchor:start"
         id="path850"
         inkscape:connector-curvature="0" />
      <path
         d="m 70.038442,130.23779 q -0.81206,-0.0347 -1.33537,-0.48075 -0.52331,-0.44607 -0.489351,-1.24121 0.04118,-0.96432 0.844697,-1.52321 0.802789,-0.54197 2.020579,-0.87979 l 0.242032,-0.90489 q -0.513741,0.52042 -1.029948,0.70176 -0.516208,0.18134 -1.040663,0.15894 -0.81206,-0.0347 -1.297921,-0.5639 -0.468944,-0.52849 -0.425592,-1.54356 0.01806,-0.42295 0.182307,-1.09389 l 1.38235,-5.38151 2.436179,0.10404 -1.463749,5.70007 q -0.05942,0.20084 -0.06882,0.42078 -0.03179,0.74439 0.475746,0.76606 0.439866,0.0188 0.794119,-0.33896 0.354977,-0.37466 0.584725,-0.99195 l 1.420521,-5.48158 2.436179,0.10404 -2.010126,7.77838 q 0.82362,-0.236 1.33736,-0.75642 0.51374,-0.52042 0.897618,-1.5718 l 0.710552,0.0303 q -0.521088,1.48618 -1.329659,2.1635 -0.807847,0.6604 -1.799924,0.87226 l -0.305791,1.20725 q -0.408443,1.62659 -1.263432,2.20023 -0.855711,0.59056 -1.904621,0.54576 z m -0.332755,-1.33621 q 0.287605,0.0123 0.574909,-0.36527 0.287305,-0.37755 0.470635,-1.09852 l 0.122461,-0.48629 q -1.683967,0.53824 -1.71937,1.36722 -0.0094,0.21993 0.135643,0.39561 0.145035,0.17569 0.415722,0.18725 z"
         style="font-style:normal;font-variant:normal;font-weight:normal;font-stretch:normal;font-size:16.93333244px;font-family:Lobster;-inkscape-font-specification:'Lobster, Normal';font-variant-ligatures:normal;font-variant-caps:normal;font-variant-numeric:normal;font-feature-settings:normal;text-align:start;writing-mode:lr-tb;text-anchor:start"
         id="path852"
         inkscape:connector-curvature="0" />
      <path
         d="m 85.756082,127.34622 q -0.892408,-0.0952 -1.239068,-0.67705 -0.34666,-0.5819 -0.258691,-1.40696 0.0377,-0.3536 0.168568,-0.7824 0.132662,-0.44565 0.261734,-0.85762 0.145909,-0.41018 0.192152,-0.52445 0.197538,-0.57497 0.376443,-1.13489 0.178905,-0.55992 0.216606,-0.91352 0.09156,-0.85873 -0.514604,-0.92336 -0.437786,-0.0467 -0.821221,0.3552 -0.38164,0.38505 -0.657302,1.05386 l -1.721264,5.28288 -2.424656,-0.25852 1.84854,-5.67802 q 0.07206,-0.19667 0.0954,-0.41556 0.07899,-0.74087 -0.426144,-0.79473 -0.471461,-0.0503 -0.871735,0.34982 -0.38164,0.38504 -0.659096,1.07069 l -1.721265,5.28288 -2.424656,-0.25852 2.68246,-8.22864 2.424657,0.25852 -0.278572,0.85582 q 0.961064,-0.8682 2.156555,-0.74074 1.481734,0.15799 1.579908,1.63298 1.078684,-1.33248 2.493067,-1.18168 0.858733,0.0916 1.313601,0.61688 0.454869,0.52532 0.352538,1.48508 -0.05206,0.4883 -0.234559,1.0819 -0.180701,0.57676 -0.491153,1.41215 -0.190357,0.50761 -0.362081,1.00018 -0.153091,0.47753 -0.18361,0.76377 -0.03591,0.33676 0.09589,0.53814 0.131793,0.20137 0.502226,0.24087 0.40411,0.0431 0.566422,-0.0418 -0.192587,0.84797 -0.761239,1.2301 -0.551814,0.38392 -1.275844,0.30673 z"
         style="font-style:normal;font-variant:normal;font-weight:normal;font-stretch:normal;font-size:16.93333244px;font-family:Lobster;-inkscape-font-specification:'Lobster, Normal';font-variant-ligatures:normal;font-variant-caps:normal;font-variant-numeric:normal;font-feature-settings:normal;text-align:start;writing-mode:lr-tb;text-anchor:start"
         id="path854"
         inkscape:connector-curvature="0" />
    </g>
  </g>
</svg>
