<?xml version="1.0" encoding="UTF-8" standalone="no"?>
<!-- Created with Inkscape (http://www.inkscape.org/) -->

<svg
   xmlns:dc="http://purl.org/dc/elements/1.1/"
   xmlns:cc="http://creativecommons.org/ns#"
   xmlns:rdf="http://www.w3.org/1999/02/22-rdf-syntax-ns#"
   xmlns:svg="http://www.w3.org/2000/svg"
   xmlns="http://www.w3.org/2000/svg"
   xmlns:sodipodi="http://sodipodi.sourceforge.net/DTD/sodipodi-0.dtd"
   xmlns:inkscape="http://www.inkscape.org/namespaces/inkscape"
   width="210mm"
   height="297mm"
   viewBox="0 0 210 297"
   version="1.1"
   id="svg8"
   inkscape:version="0.92.3 (2405546, 2018-03-11)"
   sodipodi:docname="logoBitGym.svg"
   inkscape:export-filename="C:\Users\josed\Desktop\DM\BitGym\BitGym\BitGym-Logo.png"
   inkscape:export-xdpi="75.150002"
   inkscape:export-ydpi="75.150002">
  <defs
     id="defs2" />
  <sodipodi:namedview
     id="base"
     pagecolor="#ffffff"
     bordercolor="#666666"
     borderopacity="1.0"
     inkscape:pageopacity="0.0"
     inkscape:pageshadow="2"
     inkscape:zoom="2.145131"
     inkscape:cx="481.25706"
     inkscape:cy="772.56744"
     inkscape:document-units="mm"
     inkscape:current-layer="layer1"
     showgrid="false"
     showborder="false"
     inkscape:showpageshadow="false"
     inkscape:object-paths="false"
     inkscape:object-nodes="false"
     inkscape:window-width="1920"
     inkscape:window-height="1057"
     inkscape:window-x="-8"
     inkscape:window-y="-8"
     inkscape:window-maximized="1"
     showguides="true"
     inkscape:guide-bbox="true" />
  <metadata
     id="metadata5">
    <rdf:RDF>
      <cc:Work
         rdf:about="">
        <dc:format>image/svg+xml</dc:format>
        <dc:type
           rdf:resource="http://purl.org/dc/dcmitype/StillImage" />
        <dc:title />
      </cc:Work>
    </rdf:RDF>
  </metadata>
  <g
     inkscape:label="Capa 1"
     inkscape:groupmode="layer"
     id="layer1">
    <path
       style="color:#000000;font-style:normal;font-variant:normal;font-weight:normal;font-stretch:normal;font-size:medium;line-height:normal;font-family:sans-serif;font-variant-ligatures:normal;font-variant-position:normal;font-variant-caps:normal;font-variant-numeric:normal;font-variant-alternates:normal;font-feature-settings:normal;text-indent:0;text-align:start;text-decoration:none;text-decoration-line:none;text-decoration-style:solid;text-decoration-color:#000000;letter-spacing:normal;word-spacing:normal;text-transform:none;writing-mode:lr-tb;direction:ltr;text-orientation:mixed;dominant-baseline:auto;baseline-shift:baseline;text-anchor:start;white-space:normal;shape-padding:0;clip-rule:nonzero;display:inline;overflow:visible;visibility:visible;opacity:1;isolation:auto;mix-blend-mode:normal;color-interpolation:sRGB;color-interpolation-filters:linearRGB;solid-color:#000000;solid-opacity:1;vector-effect:none;fill:#000000;fill-opacity:1;fill-rule:nonzero;stroke:none;stroke-width:0.75033987;stroke-linecap:butt;stroke-linejoin:round;stroke-miterlimit:4;stroke-dasharray:none;stroke-dashoffset:0;stroke-opacity:1;color-rendering:auto;image-rendering:auto;shape-rendering:auto;text-rendering:auto;enable-background:accumulate"
       d="m 39.572973,102.45838 c -0.06319,0.008 -0.12596,0.0338 -0.187774,0.0817 a 0.21685326,0.64919778 0 0 0 -0.04972,0.0329 l -0.01201,0.0123 a 0.21685326,0.64919778 0 0 0 -0.01331,0.014 l -0.918646,0.96465 a 0.21685326,0.64919778 0 0 0 -0.0065,0.008 0.21685326,0.64919778 0 0 0 -0.01305,0.0121 c -0.148342,0.15579 -0.274933,0.4289 -0.379855,0.78068 -0.129662,-0.0627 -0.25955,-0.0538 -0.385596,0.0438 a 0.21685325,0.64919776 0 0 0 -0.04972,0.0324 l -0.012,0.0128 a 0.21685325,0.64919776 0 0 0 -0.01318,0.014 l -0.918776,0.96502 a 0.21685325,0.64919776 0 0 0 -0.0064,0.008 0.21685325,0.64919776 0 0 0 -0.01318,0.0121 c -0.148343,0.15581 -0.274937,0.42856 -0.379855,0.78031 -0.129682,-0.0627 -0.259662,-0.0536 -0.385727,0.0441 a 0.21685325,0.64919776 0 0 0 -0.04959,0.0329 l -0.012,0.0124 a 0.21685325,0.64919776 0 0 0 -0.01318,0.014 l -0.918776,0.96503 a 0.21685325,0.64919776 0 0 0 -0.0065,0.008 0.21685325,0.64919776 0 0 0 -0.01305,0.0121 l -2.61e-4,-0.004 c -0.259146,0.27216 -0.452329,0.90009 -0.578459,1.6857 -0.12613,0.78563 -0.194736,1.74683 -0.217656,2.83816 -0.04584,2.18267 0.09407,4.8985 0.423699,7.7117 0.329629,2.81324 0.787023,5.19578 1.278274,6.81445 0.245625,0.80933 0.499766,1.43125 0.762189,1.80886 0.262423,0.37756 0.5444,0.5068 0.803554,0.23466 a 0.21685325,0.64919776 0 0 0 0.01357,-0.0159 c 2.05e-4,-2.7e-4 3.19e-4,-5.8e-4 5.02e-4,-7.8e-4 a 0.21685325,0.64919776 0 0 0 0.0052,-0.005 l 0.905075,-0.95032 a 0.21685325,0.64919776 0 0 0 0.0065,-0.008 0.21685325,0.64919776 0 0 0 0.01305,-0.0121 c 0.147421,-0.15483 0.27348,-0.42472 0.378028,-0.77334 0.154442,0.0769 0.30924,0.0518 0.456713,-0.10304 a 0.21685325,0.64919776 0 0 0 0.01357,-0.0159 c 2.05e-4,-2.6e-4 3.98e-4,-6.1e-4 6.85e-4,-7.7e-4 a 0.21685325,0.64919776 0 0 0 0.0052,-0.004 l 0.905074,-0.95069 a 0.21685325,0.64919776 0 0 0 0.0065,-0.008 0.21685325,0.64919776 0 0 0 0.01305,-0.0121 c 0.147435,-0.15481 0.273474,-0.42504 0.378028,-0.77371 0.154447,0.0768 0.309231,0.0523 0.456713,-0.10257 a 0.21685326,0.64919778 0 0 0 0.01357,-0.0159 c 2.06e-4,-2.6e-4 4.38e-4,-6.6e-4 6.84e-4,-7.7e-4 a 0.21685326,0.64919778 0 0 0 0.0052,-0.005 l 0.904945,-0.95031 a 0.21685326,0.64919778 0 0 0 0.0065,-0.008 0.21685326,0.64919778 0 0 0 0.01318,-0.0119 c 0.259149,-0.27215 0.452329,-0.89969 0.578459,-1.68531 0.12613,-0.78561 0.194738,-1.74682 0.217656,-2.83816 0.04584,-2.18269 -0.0942,-4.89847 -0.423829,-7.7117 a 0.21685326,0.64919778 0 0 0 0,-3.9e-4 c -0.326529,-2.78433 -0.778603,-5.14896 -1.264834,-6.76643 -0.243115,-0.80873 -0.494829,-1.4337 -0.754621,-1.82085 -0.184354,-0.27474 -0.377796,-0.42642 -0.567368,-0.4043 z m 21.498395,0 c -0.189572,-0.0221 -0.383144,0.12954 -0.567499,0.40429 -0.25979,0.38714 -0.511504,1.01212 -0.75462,1.82085 -0.48623,1.61747 -0.938305,3.98209 -1.264834,6.76642 a 0.21685326,0.64919778 0 0 1 0,3.9e-4 c -0.329633,2.81323 -0.469668,5.529 -0.423829,7.71172 0.02292,1.09132 0.09166,2.05253 0.217786,2.83816 0.12613,0.7856 0.319311,1.41314 0.57846,1.68529 a 0.21685326,0.64919778 0 0 0 0.01305,0.0121 0.21685326,0.64919778 0 0 0 0.0065,0.008 l 0.905074,0.95031 a 0.21685326,0.64919778 0 0 0 0.0052,0.005 c 2.52e-4,1.2e-4 4.56e-4,5.1e-4 6.84e-4,7.8e-4 a 0.21685326,0.64919778 0 0 0 0.01357,0.0159 c 0.147482,0.15492 0.302396,0.17942 0.456843,0.10269 0.104556,0.34868 0.230463,0.6189 0.377897,0.77373 a 0.21685325,0.64919776 0 0 0 0.01318,0.0121 0.21685325,0.64919776 0 0 0 0.0065,0.008 l 0.904944,0.95069 a 0.21685325,0.64919776 0 0 0 0.0052,0.004 c 2.52e-4,1.5e-4 5.94e-4,5.1e-4 7.76e-4,7.8e-4 a 0.21685325,0.64919776 0 0 0 0.01344,0.0159 c 0.147472,0.15489 0.302402,0.17989 0.456846,0.10305 0.104546,0.34864 0.230604,0.61852 0.378026,0.77335 a 0.21685325,0.64919776 0 0 0 0.01304,0.0121 0.21685325,0.64919776 0 0 0 0.0065,0.008 l 0.905076,0.95032 a 0.21685325,0.64919776 0 0 0 0.0052,0.005 c 2.53e-4,2e-4 1.86e-4,5.1e-4 3.26e-4,7.7e-4 a 0.21685325,0.64919776 0 0 0 0.0137,0.0159 c 0.25915,0.27213 0.540995,0.1429 0.80342,-0.23467 0.262424,-0.37758 0.516563,-0.99951 0.76219,-1.80884 0.491253,-1.61867 0.948643,-4.00122 1.278272,-6.81445 0.32963,-2.81322 0.469541,-5.52903 0.423696,-7.71171 -0.02291,-1.09132 -0.09152,-2.05254 -0.217651,-2.83814 -0.126132,-0.78562 -0.319314,-1.41355 -0.578465,-1.68571 l -3.19e-4,0.004 a 0.21685325,0.64919776 0 0 0 -0.01305,-0.0121 0.21685325,0.64919776 0 0 0 -0.0064,-0.008 l -0.918775,-0.96502 a 0.21685325,0.64919776 0 0 0 -0.01333,-0.014 l -0.01187,-0.0123 a 0.21685325,0.64919776 0 0 0 -0.04971,-0.0329 c -0.126072,-0.0977 -0.256047,-0.10683 -0.38573,-0.0441 -0.104921,-0.35176 -0.231509,-0.62452 -0.379851,-0.78032 a 0.21685325,0.64919776 0 0 0 -0.01304,-0.0121 0.21685325,0.64919776 0 0 0 -0.0064,-0.008 l -0.918775,-0.96503 a 0.21685325,0.64919776 0 0 0 -0.0133,-0.014 l -0.01187,-0.0128 a 0.21685325,0.64919776 0 0 0 -0.04972,-0.0324 c -0.126045,-0.0977 -0.255934,-0.10636 -0.385597,-0.0438 -0.104921,-0.35179 -0.231638,-0.6249 -0.379984,-0.7807 a 0.21685326,0.64919778 0 0 0 -0.01304,-0.0121 0.21685326,0.64919778 0 0 0 -0.0064,-0.009 l -0.918776,-0.96464 a 0.21685326,0.64919778 0 0 0 -0.01331,-0.014 l -0.01188,-0.0124 a 0.21685326,0.64919778 0 0 0 -0.04972,-0.0329 c -0.06181,-0.0478 -0.124584,-0.0743 -0.187775,-0.0817 z m -21.663986,0.72647 6.84e-4,0.007 a 10.088358,1.5522014 84.49147 0 0 -0.01736,0.0118 v -7.7e-4 z m 21.829707,0 0.0167,0.0178 -1.3e-4,7.8e-4 a 1.5522014,10.088358 5.5085303 0 0 -0.01736,-0.0118 z m -21.853064,0.0232 a 10.088358,1.5522014 84.49147 0 0 -0.648141,4.06962 l -0.946049,0.9933 a 10.088358,1.5522014 84.49147 0 1 0.652969,-4.07544 v 7.8e-4 a 10.088358,1.5522014 84.49147 0 1 9.13e-4,-7.8e-4 10.088358,1.5522014 84.49147 0 1 0.02036,-0.014 l -7.76e-4,-0.007 z m 21.876292,0 0.920733,0.96697 -6.85e-4,0.007 a 1.5522014,10.088358 5.5085303 0 1 0.02035,0.014 1.5522014,10.088358 5.5085303 0 1 10e-4,7.7e-4 v -3.8e-4 a 1.5522014,10.088358 5.5085303 0 1 0.652965,4.07503 l -0.946178,-0.99329 a 1.5522014,10.088358 5.5085303 0 0 -0.64814,-4.06962 z m -21.407053,1.55598 a 8.44413,1.3742461 84.637774 0 1 1.950817,7.09365 8.44413,1.3742461 84.637774 0 1 -0.270895,9.61271 8.44413,1.3742461 84.637774 0 1 -2.217277,-6.99993 8.44413,1.3742461 84.637774 0 1 0.270896,-9.61234 8.44413,1.3742461 84.637774 0 1 0.266459,-0.0942 z m 20.937813,0 a 1.3742461,8.44413 5.3622258 0 1 0.26659,0.0942 1.3742461,8.44413 5.3622258 0 1 0.270765,9.61233 1.3742461,8.44413 5.3622258 0 1 -2.217276,6.99992 1.3742461,8.44413 5.3622258 0 1 -0.270766,-9.61269 1.3742461,8.44413 5.3622258 0 1 1.950687,-7.09366 z m -23.162527,0.28889 7.76e-4,0.007 a 10.088358,1.5522013 84.491469 0 0 -0.01749,0.0118 v -7.7e-4 z m 25.387241,0 0.01669,0.0174 v 7.8e-4 a 1.5522013,10.088358 5.5085307 0 0 -0.01733,-0.0118 z m -25.410598,0.0232 a 10.088358,1.5522013 84.491469 0 0 -0.648141,4.06923 l -0.945919,0.9937 a 10.088358,1.5522013 84.491469 0 1 0.65284,-4.07543 v 3.9e-4 a 10.088358,1.5522013 84.491469 0 1 9.12e-4,-7.8e-4 10.088358,1.5522013 84.491469 0 1 0.02036,-0.0135 l -7.75e-4,-0.007 z m 25.433953,0 0.920737,0.96697 -6.85e-4,0.007 a 1.5522013,10.088358 5.5085307 0 1 0.02035,0.0135 1.5522013,10.088358 5.5085307 0 1 10e-4,7.8e-4 v -4e-4 a 1.5522013,10.088358 5.5085307 0 1 0.652836,4.07544 l -0.946047,-0.9937 a 1.5522013,10.088358 5.5085307 0 0 -0.648141,-4.06923 z m -27.189428,1.84487 7.76e-4,0.007 a 10.088358,1.5522013 84.491469 0 0 -0.01749,0.0118 v -7.8e-4 z m 28.944904,0 0.01671,0.0175 v 7.7e-4 a 1.5522013,10.088358 5.5085307 0 0 -0.01748,-0.0118 z m -28.968261,0.0232 a 10.088358,1.5522013 84.491469 0 0 -0.648011,4.06924 l -0.946048,0.99367 a 10.088358,1.5522013 84.491469 0 1 0.652838,-4.07541 v 3.7e-4 a 10.088358,1.5522013 84.491469 0 1 9.13e-4,-7.7e-4 10.088358,1.5522013 84.491469 0 1 0.02036,-0.0135 l -6.85e-4,-0.007 z m 28.991617,0 0.920741,0.96658 -9.13e-4,0.007 a 1.5522013,10.088358 5.5085307 0 1 0.02036,0.0135 1.5522013,10.088358 5.5085307 0 1 9.13e-4,7.8e-4 v -4e-4 a 1.5522013,10.088358 5.5085307 0 1 0.652964,4.07544 l -0.946046,-0.9937 a 1.5522013,10.088358 5.5085307 0 0 -0.648144,-4.06922 z m -27.202998,0.11618 c -0.01828,0.33361 -0.03149,0.68202 -0.03915,1.04635 -0.04584,2.18268 0.09407,4.8985 0.423699,7.71172 0.32963,2.81323 0.787023,5.19576 1.278274,6.81444 0.08839,0.29122 0.177971,0.55728 0.268548,0.79736 a 8.44413,1.3742461 84.637774 0 1 -2.009146,-7.09173 8.44413,1.3742461 84.637774 0 1 0.07777,-9.27814 z m 25.414383,0 a 1.3742461,8.44413 5.3622258 0 1 0.0779,9.27814 1.3742461,8.44413 5.3622258 0 1 -2.009144,7.09173 c 0.09058,-0.24008 0.180031,-0.50614 0.268417,-0.79736 0.491251,-1.61868 0.948646,-4.00121 1.278276,-6.81444 0.329627,-2.81322 0.46967,-5.52904 0.423828,-7.71172 -0.0076,-0.36433 -0.02098,-0.71274 -0.03928,-1.04635 z m -24.295828,1.38209 a 10.088358,1.5522014 84.49147 0 0 0.0133,0.68273 l -0.945135,0.99252 a 10.088358,1.5522014 84.49147 0 1 -0.01227,-0.68388 h 1.31e-4 z m 23.177271,0 0.944094,0.99137 a 1.5522014,10.088358 5.5085303 0 1 -0.01214,0.68388 l -0.945131,-0.99252 a 1.5522014,10.088358 5.5085303 0 0 0.01317,-0.68273 z m -21.189395,0.27263 a 3.9312874,0.63980032 84.637774 0 0 -0.105044,0.0472 3.9312874,0.63980032 84.637774 0 0 -0.126053,4.47507 3.9312874,0.63980032 84.637774 0 0 1.032301,3.25871 3.9312874,0.63980032 84.637774 0 0 0.125923,-4.47506 3.9312874,0.63980032 84.637774 0 0 -0.927127,-3.30597 z m 19.20165,0 a 0.63980032,3.9312874 5.3622255 0 0 -0.927258,3.30597 0.63980032,3.9312874 5.3622255 0 0 0.126053,4.47505 0.63980032,3.9312874 5.3622255 0 0 1.032302,-3.25869 0.63980032,3.9312874 5.3622255 0 0 -0.126053,-4.47508 0.63980032,3.9312874 5.3622255 0 0 -0.105044,-0.0473 z m -24.086783,0.21338 c -0.01827,0.33352 -0.03163,0.68174 -0.03928,1.04596 -0.04584,2.18267 0.09407,4.89888 0.423699,7.7121 0.329631,2.81324 0.787154,5.19538 1.278405,6.81407 0.08841,0.29128 0.17795,0.5572 0.268548,0.79734 a 8.44413,1.3742461 84.637774 0 1 -2.009277,-7.09095 8.44413,1.3742461 84.637774 0 1 0.0779,-9.27852 z m 28.971914,3.9e-4 a 1.3742461,8.44413 5.3622258 0 1 0.07777,9.27813 1.3742461,8.44413 5.3622258 0 1 -2.009146,7.09095 c 0.0906,-0.24014 0.180147,-0.50606 0.268549,-0.79734 0.491253,-1.61869 0.948644,-4.00083 1.278277,-6.81407 0.32962,-2.81322 0.469536,-5.52943 0.423701,-7.7121 -0.0077,-0.36409 -0.0209,-0.71217 -0.03916,-1.04557 z m -27.85349,1.38132 a 10.088358,1.5522013 84.491469 0 0 0.01331,0.68272 l -0.945135,0.99292 a 10.088358,1.5522013 84.491469 0 1 -0.01214,-0.68428 z m 26.734939,0 0.944092,0.99136 a 1.5522013,10.088358 5.5085307 0 1 -0.01214,0.68428 L 63.67631,110.9929 a 1.5522013,10.088358 5.5085307 0 0 0.0133,-0.68272 z m -24.829401,1.19235 a 10.088358,1.5522014 84.49147 0 0 0.28799,3.10962 10.088358,1.5522014 84.49147 0 0 2.547284,8.47381 l 6.85e-4,0.007 -0.904944,0.95031 -5.02e-4,-0.004 a 10.088358,1.5522014 84.49147 0 1 -0.01879,0.0259 10.088358,1.5522014 84.49147 0 1 -2.567641,-8.46027 10.088358,1.5522014 84.49147 0 1 -0.286946,-3.11077 l -1.31e-4,-0.002 z m 22.923992,0 0.942916,0.99018 v 0.002 a 1.5522014,10.088358 5.5085303 0 1 -0.286946,3.11079 1.5522014,10.088358 5.5085303 0 1 -2.56764,8.46025 1.5522014,10.088358 5.5085303 0 1 -0.01879,-0.0259 l -5.02e-4,0.004 -0.905075,-0.95032 7.76e-4,-0.007 a 1.5522014,10.088358 5.5085303 0 0 2.547284,-8.47383 1.5522014,10.088358 5.5085303 0 0 0.28799,-3.10961 z m -26.60823,0.67575 a 10.088358,1.5522013 84.491469 0 0 0.01318,0.68272 l -0.945135,0.99253 a 10.088358,1.5522013 84.491469 0 1 -0.01214,-0.68389 z m 30.29247,0 0.943961,0.99136 a 1.5522013,10.088358 5.5085307 0 1 -0.012,0.68389 L 65.455167,112.861 a 1.5522013,10.088358 5.5085307 0 0 0.01333,-0.68272 z m -28.387064,1.19234 a 10.088358,1.5522013 84.491469 0 0 0.287991,3.10963 10.088358,1.5522013 84.491469 0 0 2.547284,8.47382 l 7.75e-4,0.007 -0.905075,0.9507 -5.02e-4,-0.004 a 10.088358,1.5522013 84.491469 0 1 -0.01879,0.0259 10.088358,1.5522013 84.491469 0 1 -2.56764,-8.46064 10.088358,1.5522013 84.491469 0 1 -0.286947,-3.11079 v -9.7e-4 z m 26.481526,0 0.943047,0.99021 -1.33e-4,9.6e-4 a 1.5522013,10.088358 5.5085307 0 1 -0.286815,3.11078 1.5522013,10.088358 5.5085307 0 1 -2.567639,8.46065 1.5522013,10.088358 5.5085307 0 1 -0.01892,-0.0259 l -5.02e-4,0.004 -0.904943,-0.95069 6.84e-4,-0.007 a 1.5522013,10.088358 5.5085307 0 0 2.547283,-8.47382 1.5522013,10.088358 5.5085307 0 0 0.287991,-3.10962 z m -28.260358,1.86808 a 10.088358,1.5522013 84.491469 0 0 0.287991,3.10963 10.088358,1.5522013 84.491469 0 0 2.547284,8.47381 l 7.76e-4,0.007 -0.905074,0.9503 -3.99e-4,-0.004 a 10.088358,1.5522013 84.491469 0 1 -0.01892,0.0256 10.088358,1.5522013 84.491469 0 1 -2.567641,-8.46026 10.088358,1.5522013 84.491469 0 1 -0.286815,-3.11079 l -1.31e-4,-9.7e-4 z m 30.03919,0 0.942915,0.99021 v 9.7e-4 a 1.5522013,10.088358 5.5085307 0 1 -0.286943,3.11078 1.5522013,10.088358 5.5085307 0 1 -2.567513,8.46026 1.5522013,10.088358 5.5085307 0 1 -0.01892,-0.0256 l -6.85e-4,0.004 -0.905072,-0.95032 6.85e-4,-0.007 a 1.5522013,10.088358 5.5085307 0 0 2.547283,-8.47382 1.5522013,10.088358 5.5085307 0 0 0.287989,-3.10963 z"
       id="path4614"
       inkscape:connector-curvature="0"
       inkscape:export-filename="C:\Users\Jose\Desktop\BitGym\app\src\main\res\mipmap-xxxhdpi\ic_launcher_round.png"
       inkscape:export-xdpi="83.966606"
       inkscape:export-ydpi="83.966606" />
    <path
       style="color:#000000;font-style:normal;font-variant:normal;font-weight:normal;font-stretch:normal;font-size:medium;line-height:normal;font-family:sans-serif;font-variant-ligatures:normal;font-variant-position:normal;font-variant-caps:normal;font-variant-numeric:normal;font-variant-alternates:normal;font-feature-settings:normal;text-indent:0;text-align:start;text-decoration:none;text-decoration-line:none;text-decoration-style:solid;text-decoration-color:#000000;letter-spacing:normal;word-spacing:normal;text-transform:none;writing-mode:lr-tb;direction:ltr;text-orientation:mixed;dominant-baseline:auto;baseline-shift:baseline;text-anchor:start;white-space:normal;shape-padding:0;clip-rule:nonzero;display:inline;overflow:visible;visibility:visible;opacity:1;isolation:auto;mix-blend-mode:normal;color-interpolation:sRGB;color-interpolation-filters:linearRGB;solid-color:#000000;solid-opacity:1;vector-effect:none;fill:#000000;fill-opacity:1;fill-rule:evenodd;stroke:none;stroke-width:0.01150942;stroke-linecap:butt;stroke-linejoin:miter;stroke-miterlimit:4;stroke-dasharray:none;stroke-dashoffset:0;stroke-opacity:1;color-rendering:auto;image-rendering:auto;shape-rendering:auto;text-rendering:auto;enable-background:accumulate"
       d="m 50.335089,107.78732 c -3.403949,0 -6.598866,1.19319 -9.372926,3.30558 0.141552,1.30196 0.235408,2.24595 0.288121,2.8583 2.673188,-2.0208 5.776785,-3.18978 9.084805,-3.18978 3.316623,0 6.427792,1.17515 9.105683,3.20565 l 0.260066,-2.87959 c -2.772401,-2.10901 -5.964723,-3.30016 -9.365749,-3.30016 z"
       id="path4702"
       inkscape:connector-curvature="0"
       inkscape:export-filename="C:\Users\Jose\Desktop\BitGym\app\src\main\res\mipmap-xxxhdpi\ic_launcher_round.png"
       inkscape:export-xdpi="83.966606"
       inkscape:export-ydpi="83.966606" />
    <path
       style="opacity:1;fill:#000000;fill-opacity:1;stroke:none;stroke-width:0.06097353px;stroke-linecap:butt;stroke-linejoin:miter;stroke-opacity:1"
       d="m 54.673341,95.878215 -0.557582,0.443403 v 3.531343 h -0.653361 v 6.647919 h -0.456973 v -3.58864 l -0.568543,-0.45194 -0.672934,-1.15284 v 3.89186 l -0.191558,-0.15257 v 0.69242 H 51.152344 V 98.537459 H 50.498983 V 97.498854 H 49.68225 V 106.224 h -1.330078 v -1.8228 h -0.401386 l 0.08312,-0.91932 -0.731785,-0.58165 v -4.155201 h -0.934434 v 7.214471 l -0.364327,-0.28967 v -5.6457 l -0.824563,-0.655636 -0.583418,-1.731386 v 2.423802 h -0.793376 v 3.53171 h -0.28003 v -1.45411 h -0.5705 v 1.19195 l -0.173421,0.29703 0.09056,1.00373 h -0.46663 c 0,0 0.04438,0.0859 0.02519,4.85885 2.434694,-1.51522 5.13985,-2.35642 7.993,-2.35642 2.786304,0 5.432179,0.80049 7.822188,2.24915 V 98.705538 l -0.345666,0.274933 -1.097417,0.87249 v -2.146537 h -0.89842 v 3.704826 l -0.105044,0.31174 v 5.67825 h -0.40008 v -5.43932 l -0.483203,0.38415 v -5.757635 z"
       id="path855"
       inkscape:connector-curvature="0"
       inkscape:export-filename="C:\Users\Jose\Desktop\BitGym\app\src\main\res\mipmap-xxxhdpi\ic_launcher_round.png"
       inkscape:export-xdpi="83.966606"
       inkscape:export-ydpi="83.966606" />
    <g
       aria-label="                                                                             BitGym"
       transform="matrix(0.25251247,0,0,0.74705243,34.017908,26.677165)"
       style="font-style:normal;font-variant:normal;font-weight:normal;font-stretch:normal;font-size:14.11111069px;line-height:1.25;font-family:Lobster;-inkscape-font-specification:'Lobster, Normal';font-variant-ligatures:normal;font-variant-caps:normal;font-variant-numeric:normal;font-feature-settings:normal;text-align:start;letter-spacing:0px;word-spacing:0px;writing-mode:lr-tb;text-anchor:start;fill:#000000;fill-opacity:1;stroke:none;stroke-width:0.43982238"
       id="text830"
       inkscape:export-filename="C:\Users\Jose\Desktop\BitGym\app\src\main\res\mipmap-xxxhdpi\ic_launcher_round.png"
       inkscape:export-xdpi="83.966606"
       inkscape:export-ydpi="83.966606">
      <path
         d="m 44.389887,127.46459 q -0.671174,0.0911 -1.213286,-0.12577 -0.523054,-0.20241 -0.616462,-0.89036 -0.05923,-0.43626 0.08599,-1.00282 0.347593,0.29458 0.61751,0.39464 0.286696,0.0978 0.588725,0.0568 0.838968,-0.11391 1.114091,-1.10823 0.291903,-0.9966 0.136982,-2.1376 -0.289338,-2.13098 -1.883378,-1.91455 -0.453043,0.0615 -0.765016,0.15514 l -0.50334,6.61332 -2.41623,0.32807 0.833029,-10.98153 2.437782,-0.67277 -0.282859,3.8321 0.100676,-0.0137 q 0.637616,-0.0866 1.136658,-0.56446 0.496763,-0.49466 0.748055,-1.16107 0.249014,-0.68318 0.162441,-1.32079 -0.1048,-0.77185 -0.729145,-1.21683 -0.607565,-0.44726 -1.731783,-0.29462 -1.023542,0.13898 -1.932955,0.74094 -0.911691,0.58518 -1.407224,1.59234 -0.478753,1.00488 -0.30105,2.31367 0.08429,0.62084 0.235924,0.85658 0.149351,0.21897 0.153908,0.25253 -0.889307,0.12074 -1.390193,-0.17011 -0.503165,-0.30764 -0.614799,-1.12982 -0.154921,-1.141 0.561854,-2.28073 0.716775,-1.13974 2.041947,-1.95195 1.322894,-0.82899 2.883376,-1.04086 1.174556,-0.15948 2.030087,0.10031 0.855531,0.25979 1.323474,0.81145 0.484722,0.54938 0.582686,1.27089 0.1048,0.77185 -0.233499,1.5526 -0.338299,0.78075 -1.082196,1.34315 1.031823,0.0479 1.620946,0.73688 0.586844,0.67222 0.725818,1.69576 0.12986,0.95643 -0.08664,2.13077 -0.199724,1.17206 -0.927059,2.10816 -0.712833,0.91704 -2.004845,1.09247 z"
         style="font-style:normal;font-variant:normal;font-weight:normal;font-stretch:normal;font-size:16.93333244px;font-family:Lobster;-inkscape-font-specification:'Lobster, Normal';font-variant-ligatures:normal;font-variant-caps:normal;font-variant-numeric:normal;font-feature-settings:normal;text-align:start;writing-mode:lr-tb;text-anchor:start"
         id="path844"
         inkscape:connector-curvature="0" />
      <path
         d="m 50.646092,117.09869 q -0.556818,0.047 -0.977675,-0.30829 -0.420857,-0.35531 -0.467877,-0.91213 -0.04702,-0.55682 0.308294,-0.97768 0.353889,-0.43773 0.910707,-0.48475 0.556819,-0.047 0.9791,0.32517 0.43773,0.35389 0.48475,0.91071 0.04702,0.55682 -0.325167,0.9791 -0.355314,0.42085 -0.912132,0.46787 z m -0.34947,9.54593 q -0.809917,0.0684 -1.358861,-0.39506 -0.53207,-0.46488 -0.617561,-1.47727 -0.03562,-0.42184 0.04237,-1.10817 l 0.690008,-5.51321 2.429752,-0.20518 -0.730429,5.83951 q -0.04612,0.2588 -0.0219,0.54564 0.0285,0.33747 0.19318,0.4765 0.180132,0.12074 0.551344,0.0894 0.489325,-0.0413 0.876961,-0.4819 0.386211,-0.45745 0.516248,-1.13118 l 0.708678,-0.0598 q -0.470428,1.87503 -1.39351,2.61573 -0.924506,0.72382 -1.886283,0.80504 z"
         style="font-style:normal;font-variant:normal;font-weight:normal;font-stretch:normal;font-size:16.93333244px;font-family:Lobster;-inkscape-font-specification:'Lobster, Normal';font-variant-ligatures:normal;font-variant-caps:normal;font-variant-numeric:normal;font-feature-settings:normal;text-align:start;writing-mode:lr-tb;text-anchor:start"
         id="path846"
         inkscape:connector-curvature="0" />
      <path
         d="m 54.727764,126.31592 q -0.862272,0.0478 -1.314045,-0.45281 -0.434866,-0.50161 -0.482724,-1.36388 -0.0244,-0.43959 0.05171,-0.90172 l 0.800551,-5.13225 -0.557941,0.031 0.09772,-0.6838 0.557941,-0.031 0.377721,-2.36136 2.483515,-0.47703 q -0.116507,0.65093 -0.126846,0.77022 -0.09208,0.47997 -0.299737,1.93304 l 1.014438,-0.0563 -0.09772,0.6838 -1.014438,0.0563 -0.800552,5.13225 q -0.06389,0.37666 -0.05169,0.59645 0.03378,0.60866 0.625538,0.57582 0.304332,-0.0169 0.436775,-0.0751 -0.283719,0.99939 -0.721449,1.36288 -0.43773,0.36348 -0.978764,0.39351 z"
         style="font-style:normal;font-variant:normal;font-weight:normal;font-stretch:normal;font-size:16.93333244px;font-family:Lobster;-inkscape-font-specification:'Lobster, Normal';font-variant-ligatures:normal;font-variant-caps:normal;font-variant-numeric:normal;font-feature-settings:normal;text-align:start;writing-mode:lr-tb;text-anchor:start"
         id="path848"
         inkscape:connector-curvature="0" />
      <path
         d="m 61.740625,129.44882 q -1.23605,0.0143 -2.00547,-0.62022 -0.75229,-0.61784 -0.764282,-1.65071 -0.0075,-0.64342 0.291018,-1.18879 0.298488,-0.54537 0.819847,-0.85624 0.521163,-0.32781 1.147654,-0.33508 0.643423,-0.007 1.036599,0.30972 0.410108,0.31699 0.416202,0.84189 0.0047,0.40637 -0.178783,0.64559 -0.154749,-0.20142 -0.42704,-0.3168 -0.255359,-0.11558 -0.543207,-0.11224 -0.507965,0.006 -0.825745,0.34828 -0.31778,0.34238 -0.311489,0.88421 0.0063,0.54183 0.315002,0.87694 0.325644,0.3349 0.799745,0.3294 0.592627,-0.007 1.009837,-0.53669 0.417211,-0.52982 0.625337,-1.56524 l 0.803162,-3.75184 -0.06773,7.9e-4 q -0.449698,0.64873 -1.106122,0.99504 -0.639491,0.34611 -1.418372,0.35516 -0.982067,0.0114 -1.733178,-0.50485 -0.751111,-0.51625 -1.168689,-1.47666 -0.400843,-0.97755 -0.415784,-2.2644 -0.02163,-1.86254 0.773426,-3.39587 0.794855,-1.55027 2.206936,-2.44725 1.412081,-0.89699 3.122233,-0.91685 1.439236,-0.0167 2.276187,0.60015 0.853884,0.61666 0.866466,1.70032 0.0085,0.72809 -0.342011,1.17245 -0.350465,0.44437 -0.926159,0.45105 -0.321712,0.004 -0.611132,-0.12838 -0.272488,-0.13231 -0.461691,-0.38413 0.302421,-0.20673 0.500495,-0.64932 0.214811,-0.45973 0.209503,-0.9169 -0.0059,-0.50796 -0.313823,-0.77534 -0.291189,-0.2845 -0.833019,-0.27821 -0.982067,0.0114 -1.886183,0.90249 -0.904312,0.87416 -1.446757,2.28602 -0.542445,1.41186 -0.524555,2.95269 0.01474,1.26991 0.428981,1.94248 0.41404,0.65564 1.175989,0.64679 0.914338,-0.0106 1.597352,-0.98381 0.699946,-0.97339 1.101822,-2.82392 l 1.998195,-0.006 -1.169994,5.70356 q -0.512538,2.52919 -1.497775,3.72604 -0.968306,1.19666 -2.542999,1.21494 z"
         style="font-style:normal;font-variant:normal;font-weight:normal;font-stretch:normal;font-size:16.93333244px;font-family:Lobster;-inkscape-font-specification:'Lobster, Normal';font-variant-ligatures:normal;font-variant-caps:normal;font-variant-numeric:normal;font-feature-settings:normal;text-align:start;writing-mode:lr-tb;text-anchor:start"
         id="path850"
         inkscape:connector-curvature="0" />
      <path
         d="m 70.038442,130.23779 q -0.81206,-0.0347 -1.33537,-0.48075 -0.52331,-0.44607 -0.489351,-1.24121 0.04118,-0.96432 0.844697,-1.52321 0.802789,-0.54197 2.020579,-0.87979 l 0.242032,-0.90489 q -0.513741,0.52042 -1.029948,0.70176 -0.516208,0.18134 -1.040663,0.15894 -0.81206,-0.0347 -1.297921,-0.5639 -0.468944,-0.52849 -0.425592,-1.54356 0.01806,-0.42295 0.182307,-1.09389 l 1.38235,-5.38151 2.436179,0.10404 -1.463749,5.70007 q -0.05942,0.20084 -0.06882,0.42078 -0.03179,0.74439 0.475746,0.76606 0.439866,0.0188 0.794119,-0.33896 0.354977,-0.37466 0.584725,-0.99195 l 1.420521,-5.48158 2.436179,0.10404 -2.010126,7.77838 q 0.82362,-0.236 1.33736,-0.75642 0.51374,-0.52042 0.897618,-1.5718 l 0.710552,0.0303 q -0.521088,1.48618 -1.329659,2.1635 -0.807847,0.6604 -1.799924,0.87226 l -0.305791,1.20725 q -0.408443,1.62659 -1.263432,2.20023 -0.855711,0.59056 -1.904621,0.54576 z m -0.332755,-1.33621 q 0.287605,0.0123 0.574909,-0.36527 0.287305,-0.37755 0.470635,-1.09852 l 0.122461,-0.48629 q -1.683967,0.53824 -1.71937,1.36722 -0.0094,0.21993 0.135643,0.39561 0.145035,0.17569 0.415722,0.18725 z"
         style="font-style:normal;font-variant:normal;font-weight:normal;font-stretch:normal;font-size:16.93333244px;font-family:Lobster;-inkscape-font-specification:'Lobster, Normal';font-variant-ligatures:normal;font-variant-caps:normal;font-variant-numeric:normal;font-feature-settings:normal;text-align:start;writing-mode:lr-tb;text-anchor:start"
         id="path852"
         inkscape:connector-curvature="0" />
      <path
         d="m 85.756082,127.34622 q -0.892408,-0.0952 -1.239068,-0.67705 -0.34666,-0.5819 -0.258691,-1.40696 0.0377,-0.3536 0.168568,-0.7824 0.132662,-0.44565 0.261734,-0.85762 0.145909,-0.41018 0.192152,-0.52445 0.197538,-0.57497 0.376443,-1.13489 0.178905,-0.55992 0.216606,-0.91352 0.09156,-0.85873 -0.514604,-0.92336 -0.437786,-0.0467 -0.821221,0.3552 -0.38164,0.38505 -0.657302,1.05386 l -1.721264,5.28288 -2.424656,-0.25852 1.84854,-5.67802 q 0.07206,-0.19667 0.0954,-0.41556 0.07899,-0.74087 -0.426144,-0.79473 -0.471461,-0.0503 -0.871735,0.34982 -0.38164,0.38504 -0.659096,1.07069 l -1.721265,5.28288 -2.424656,-0.25852 2.68246,-8.22864 2.424657,0.25852 -0.278572,0.85582 q 0.961064,-0.8682 2.156555,-0.74074 1.481734,0.15799 1.579908,1.63298 1.078684,-1.33248 2.493067,-1.18168 0.858733,0.0916 1.313601,0.61688 0.454869,0.52532 0.352538,1.48508 -0.05206,0.4883 -0.234559,1.0819 -0.180701,0.57676 -0.491153,1.41215 -0.190357,0.50761 -0.362081,1.00018 -0.153091,0.47753 -0.18361,0.76377 -0.03591,0.33676 0.09589,0.53814 0.131793,0.20137 0.502226,0.24087 0.40411,0.0431 0.566422,-0.0418 -0.192587,0.84797 -0.761239,1.2301 -0.551814,0.38392 -1.275844,0.30673 z"
         style="font-style:normal;font-variant:normal;font-weight:normal;font-stretch:normal;font-size:16.93333244px;font-family:Lobster;-inkscape-font-specification:'Lobster, Normal';font-variant-ligatures:normal;font-variant-caps:normal;font-variant-numeric:normal;font-feature-settings:normal;text-align:start;writing-mode:lr-tb;text-anchor:start"
         id="path854"
         inkscape:connector-curvature="0" />
    </g>
  </g>
</svg>
